<svg width="20" height="17" viewBox="0 0 20 17" fill="none" xmlns="http://www.w3.org/2000/svg">
<path fill-rule="evenodd" clip-rule="evenodd" d="M17.4954 0.133001C17.717 -0.000289127 17.9816 -0.0425638 18.2337 0.0150501C18.4858 0.0726639 18.7057 0.225687 18.8474 0.442001L19.8374 1.952C19.9665 2.14926 20.0217 2.38577 19.9933 2.61979C19.965 2.8538 19.8548 3.07028 19.6824 3.231L19.6794 3.235L19.6654 3.248L19.6084 3.301L19.3834 3.516C18.1385 4.72366 16.9312 5.96959 15.7634 7.252C13.5664 9.668 10.9574 12.83 9.2014 15.898C8.7114 16.754 7.5144 16.938 6.8044 16.199L0.319401 9.461C0.226467 9.3644 0.153901 9.25011 0.106018 9.12491C0.0581347 8.99971 0.0359115 8.86616 0.0406692 8.7322C0.0454268 8.59824 0.0770681 8.4666 0.133713 8.34511C0.190357 8.22362 0.270848 8.11476 0.370401 8.025L2.3304 6.257C2.50264 6.10171 2.7235 6.01111 2.95518 6.00072C3.18685 5.99032 3.41494 6.06077 3.6004 6.2L6.9094 8.681C12.0784 3.584 15.0094 1.628 17.4954 0.133001ZM17.7054 2.349C15.4154 3.781 12.5574 5.858 7.7074 10.707C7.53721 10.8772 7.31134 10.9803 7.07126 10.9974C6.83117 11.0145 6.59298 10.9444 6.4004 10.8L3.0584 8.294L2.4774 8.818L7.7944 14.344C9.6404 11.274 12.1814 8.218 14.2844 5.906C15.3919 4.68949 16.534 3.505 17.7094 2.354L17.7054 2.349Z" fill="#88B82E"/>
</svg>
