<svg width="28" height="28" viewBox="0 0 28 28" fill="none" xmlns="http://www.w3.org/2000/svg">
<path d="M14.0001 0.719971C6.66675 0.719971 0.666748 6.70664 0.666748 14.08C0.666748 20.7466 5.54675 26.28 11.9201 27.28V17.9466H8.53341V14.08H11.9201V11.1333C11.9201 7.78664 13.9067 5.94664 16.9601 5.94664C18.4134 5.94664 19.9334 6.19997 19.9334 6.19997V9.4933H18.2534C16.6001 9.4933 16.0801 10.52 16.0801 11.5733V14.08H19.7867L19.1867 17.9466H16.0801V27.28C19.222 26.7838 22.083 25.1807 24.1467 22.7601C26.2103 20.3394 27.3405 17.2608 27.3334 14.08C27.3334 6.70664 21.3334 0.719971 14.0001 0.719971Z" fill="white"/>
</svg>
