<?xml version="1.0" standalone="no"?>
<!DOCTYPE svg PUBLIC "-//W3C//DTD SVG 20010904//EN"
 "http://www.w3.org/TR/2001/REC-SVG-20010904/DTD/svg10.dtd">
<svg version="1.0" xmlns="http://www.w3.org/2000/svg"
 width="360.000000pt" height="360.000000pt" viewBox="0 0 360.000000 360.000000"
 preserveAspectRatio="xMidYMid meet">

<g transform="translate(0.000000,360.000000) scale(0.100000,-0.100000)"
fill="#ffffff" stroke="none">
<path d="M1359 3424 c-55 -16 -108 -71 -111 -112 -5 -99 11 -122 120 -175 80
-39 87 -44 90 -74 3 -27 -1 -35 -23 -45 -36 -16 -106 3 -157 43 l-38 31 0 -67
c0 -66 0 -66 35 -81 45 -19 156 -18 202 1 50 21 72 42 94 90 25 54 24 95 -4
136 -21 31 -43 45 -157 98 -43 20 -51 52 -18 75 30 21 56 20 101 -3 l37 -19 0
53 c0 46 -3 53 -22 59 -37 10 -100 6 -149 -10z"/>
<path d="M632 3233 c1 -109 -1 -204 -6 -211 -4 -7 -19 -17 -33 -23 -20 -7 -24
-15 -21 -41 3 -33 4 -33 55 -33 60 1 96 17 112 52 7 15 11 103 11 238 l0 215
-61 0 -60 0 3 -197z"/>
<path d="M912 3403 c1 -22 -101 -388 -128 -458 -6 -14 1 -16 52 -13 l59 3 11
50 10 50 59 0 60 0 10 -48 10 -49 73 -1 c42 -1 72 2 72 8 0 6 -31 116 -68 245
l-67 235 -77 3 -77 3 1 -28z m87 -201 c16 -79 16 -82 -24 -82 -19 0 -35 3 -35
8 0 6 12 59 26 121 7 33 20 16 33 -47z"/>
<path d="M1957 3424 c-3 -3 -3 -12 -1 -19 3 -7 -24 -113 -60 -235 -36 -123
-66 -226 -66 -230 0 -4 25 -7 55 -7 l55 0 6 36 c12 64 19 71 79 71 50 0 55 -2
60 -25 17 -83 8 -75 91 -75 41 0 73 3 71 8 -2 4 -33 108 -67 232 -34 124 -67
231 -72 238 -11 12 -139 18 -151 6z m83 -206 c6 -29 13 -63 16 -75 6 -21 3
-23 -30 -23 -27 0 -36 4 -36 17 0 31 24 133 31 133 4 0 12 -24 19 -52z"/>
<path d="M2280 3180 l0 -250 45 0 45 0 0 137 c0 75 3 133 8 129 4 -4 33 -65
64 -134 l57 -127 65 0 c36 0 66 3 66 8 0 4 0 115 0 247 l0 240 -45 0 -44 0 -3
-126 -3 -125 -55 125 -54 126 -73 0 -73 0 0 -250z"/>
<path d="M2680 3385 l0 -45 81 0 80 0 -85 -164 c-62 -118 -86 -174 -86 -200
l0 -36 160 0 160 0 0 40 0 40 -80 0 c-44 0 -80 2 -80 5 0 2 38 76 85 164 67
125 85 168 85 200 l0 41 -160 0 -160 0 0 -45z"/>
<path d="M1610 3190 l0 -50 110 0 c61 0 113 -1 116 -2 4 -2 7 21 8 50 l1 52
-117 0 -118 0 0 -50z"/>
<path d="M1770 2806 l0 -66 -600 0 -600 0 0 -595 0 -595 -142 -2 -143 -2 140
-6 140 -5 3 -597 2 -598 600 0 600 0 0 -90 c0 -53 4 -90 10 -90 6 0 10 37 10
90 l0 90 598 2 597 3 3 598 2 597 200 0 200 0 0 30 0 30 -200 0 -200 0 0 570
0 570 -600 0 -600 0 0 59 c0 33 -4 63 -10 66 -6 4 -10 -18 -10 -59z m0 -209
l0 -123 -102 -12 c-208 -25 -397 -114 -543 -257 -166 -162 -261 -359 -281
-580 l-7 -75 -128 0 -129 0 0 585 0 585 595 0 595 0 0 -123z m1200 -437 l0
-560 -590 0 -590 0 0 201 0 202 50 -6 c67 -8 163 -52 228 -105 l52 -42 -2 277
-3 277 -72 23 c-40 12 -113 28 -163 34 l-90 12 0 123 0 124 590 0 590 0 0
-560z m-1200 -385 l0 -225 -230 0 -230 0 0 33 c0 82 51 196 122 273 75 82 200
142 296 143 l42 1 0 -225z m-926 -314 c18 -218 112 -419 270 -577 155 -154
334 -240 557 -266 l99 -12 0 -128 0 -128 -592 2 -593 3 -3 593 -2 592 128 0
129 0 7 -79z m926 -151 l0 -230 -39 0 c-130 0 -288 100 -364 231 -35 61 -65
173 -58 222 1 4 105 7 231 7 l230 0 0 -230z m1200 -365 l0 -595 -590 0 -590 0
0 129 0 128 93 12 c308 40 567 221 711 500 46 89 96 251 96 312 l0 29 -235 0
-235 0 0 -23 c0 -44 -68 -167 -125 -223 -64 -64 -175 -121 -253 -131 l-52 -6
0 232 0 231 590 0 590 0 0 -595z"/>
</g>
</svg>
