<svg width="28" height="28" viewBox="0 0 28 28" fill="none" xmlns="http://www.w3.org/2000/svg">
<path d="M20.6667 12.6667H18.0001V10.0001H20.6667V12.6667ZM15.3334 12.6667H12.6667V10.0001H15.3334V12.6667ZM10.0001 12.6667H7.33342V10.0001H10.0001V12.6667ZM24.6667 0.666748H3.33341C2.62617 0.666748 1.94789 0.9477 1.4478 1.4478C0.9477 1.94789 0.666748 2.62617 0.666748 3.33341V27.3334L6.00008 22.0001H24.6667C25.374 22.0001 26.0523 21.7191 26.5524 21.219C27.0525 20.7189 27.3334 20.0407 27.3334 19.3334V3.33341C27.3334 2.62617 27.0525 1.94789 26.5524 1.4478C26.0523 0.9477 25.374 0.666748 24.6667 0.666748Z" fill="white"/>
</svg>
