<svg width="20" height="20" viewBox="0 0 20 20" fill="none" xmlns="http://www.w3.org/2000/svg">
<g clip-path="url(#clip0_3102_256)">
<path d="M15.75 0.000169356H4.25C3.13419 -0.00982962 2.06 0.423292 1.2632 1.20447C0.466401 1.98565 0.012096 3.05105 0 4.16684L0 6.66684C0 6.88785 0.0877974 7.09981 0.244078 7.25609C0.400358 7.41237 0.61232 7.50017 0.833333 7.50017C1.05435 7.50017 1.26631 7.41237 1.42259 7.25609C1.57887 7.09981 1.66667 6.88785 1.66667 6.66684V4.16684C1.67851 3.493 1.95713 2.85137 2.44143 2.3827C2.92572 1.91403 3.57614 1.65658 4.25 1.66684H15.75C16.4239 1.65658 17.0743 1.91403 17.5586 2.3827C18.0429 2.85137 18.3215 3.493 18.3333 4.16684V15.8335C18.3215 16.5073 18.0429 17.149 17.5586 17.6176C17.0743 18.0863 16.4239 18.3438 15.75 18.3335H4.25C3.57614 18.3438 2.92572 18.0863 2.44143 17.6176C1.95713 17.149 1.67851 16.5073 1.66667 15.8335V13.3335C1.66667 13.1125 1.57887 12.9005 1.42259 12.7442C1.26631 12.588 1.05435 12.5002 0.833333 12.5002C0.61232 12.5002 0.400358 12.588 0.244078 12.7442C0.0877974 12.9005 0 13.1125 0 13.3335L0 15.8335C0.012096 16.9493 0.466401 18.0147 1.2632 18.7959C2.06 19.577 3.13419 20.0102 4.25 20.0002H15.75C16.8658 20.0102 17.94 19.577 18.7368 18.7959C19.5336 18.0147 19.9879 16.9493 20 15.8335V4.16684C19.9879 3.05105 19.5336 1.98565 18.7368 1.20447C17.94 0.423292 16.8658 -0.00982962 15.75 0.000169356Z" fill="white"/>
<path d="M2.5 10C2.5 10.221 2.5878 10.433 2.74408 10.5893C2.90036 10.7455 3.11232 10.8333 3.33333 10.8333L14.3233 10.8083L10.7208 14.4108C10.6412 14.4877 10.5778 14.5797 10.5341 14.6813C10.4904 14.783 10.4674 14.8924 10.4665 15.003C10.4655 15.1136 10.4866 15.2234 10.5285 15.3258C10.5704 15.4282 10.6323 15.5213 10.7105 15.5995C10.7887 15.6777 10.8818 15.7396 10.9842 15.7815C11.0866 15.8234 11.1964 15.8445 11.307 15.8435C11.4177 15.8426 11.527 15.8196 11.6287 15.7759C11.7303 15.7322 11.8223 15.6688 11.8992 15.5892L15.7208 11.7675C16.1895 11.2987 16.4528 10.6629 16.4528 10C16.4528 9.33709 16.1895 8.70132 15.7208 8.2325L11.9008 4.41083C11.7437 4.25904 11.5332 4.17504 11.3147 4.17694C11.0962 4.17884 10.8872 4.26648 10.7327 4.42098C10.5781 4.57549 10.4905 4.7845 10.4886 5.003C10.4867 5.2215 10.5707 5.432 10.7225 5.58917L14.2742 9.14167L3.33333 9.16667C3.11232 9.16667 2.90036 9.25446 2.74408 9.41074C2.5878 9.56702 2.5 9.77899 2.5 10Z" fill="white"/>
</g>
<defs>
<clipPath id="clip0_3102_256">
<rect width="20" height="20" fill="white"/>
</clipPath>
</defs>
</svg>
