<svg width="20" height="20" viewBox="0 0 20 20" fill="none" xmlns="http://www.w3.org/2000/svg">
<path d="M7.5 10C10.2575 10 12.5 7.7575 12.5 5C12.5 2.2425 10.2575 0 7.5 0C4.7425 0 2.5 2.2425 2.5 5C2.5 7.7575 4.7425 10 7.5 10ZM7.5 1.66667C9.33833 1.66667 10.8333 3.16167 10.8333 5C10.8333 6.83833 9.33833 8.33333 7.5 8.33333C5.66167 8.33333 4.16667 6.83833 4.16667 5C4.16667 3.16167 5.66167 1.66667 7.5 1.66667ZM4.16667 11.6667H9.16667V13.3333H4.16667C2.78833 13.3333 1.66667 14.455 1.66667 15.8333V20H0V15.8333C0 13.5358 1.86917 11.6667 4.16667 11.6667ZM17.9167 9.16667H12.9167C11.7675 9.16667 10.8333 10.1017 10.8333 11.25V20H20V11.25C20 10.1017 19.0658 9.16667 17.9167 9.16667ZM18.3333 18.3333H12.5V11.25C12.5 11.02 12.6875 10.8333 12.9167 10.8333H17.9167C18.1458 10.8333 18.3333 11.02 18.3333 11.25V18.3333ZM13.3325 12.4975H17.4992V14.1642H13.3325V12.4975ZM13.3325 15H17.4992V16.6667H13.3325V15Z" fill="white"/>
</svg>
