<svg width="28" height="20" viewBox="0 0 28 20" fill="none" xmlns="http://www.w3.org/2000/svg">
<path d="M11.3334 14.0001L18.2534 10.0001L11.3334 6.00008V14.0001ZM26.7467 3.56008C26.9201 4.18675 27.0401 5.02675 27.1201 6.09341C27.2134 7.16008 27.2534 8.08008 27.2534 8.88008L27.3334 10.0001C27.3334 12.9201 27.1201 15.0667 26.7467 16.4401C26.4134 17.6401 25.6401 18.4134 24.4401 18.7467C23.8134 18.9201 22.6667 19.0401 20.9067 19.1201C19.1734 19.2134 17.5867 19.2534 16.1201 19.2534L14.0001 19.3334C8.41341 19.3334 4.93341 19.1201 3.56008 18.7467C2.36008 18.4134 1.58675 17.6401 1.25341 16.4401C1.08008 15.8134 0.960081 14.9734 0.880082 13.9067C0.786748 12.8401 0.746748 11.9201 0.746748 11.1201L0.666748 10.0001C0.666748 7.08008 0.880081 4.93341 1.25341 3.56008C1.58675 2.36008 2.36008 1.58675 3.56008 1.25341C4.18675 1.08008 5.33342 0.960081 7.09342 0.880081C8.82675 0.786748 10.4134 0.746748 11.8801 0.746748L14.0001 0.666748C19.5867 0.666748 23.0667 0.880081 24.4401 1.25341C25.6401 1.58675 26.4134 2.36008 26.7467 3.56008Z" fill="white"/>
</svg>
